# xmcd CD database file
#
# Track frame offsets:
#	150
#	14816
#	28943
#	46560
#	70567
#	87320
#	101894
#	126176
#	142581
#	155190
#	169989
#	185371
#
# Disc length: 2702 seconds
#
# Revision: 2
# Processed by: cddbd v1.5.2PL0 Copyright (c) Steve Scherf et al.
# Submitted via: CDex 1.51
#
DISCID=a00a8c0c
DTITLE=Paul Burch - East to West
DYEAR=2006
DGENRE=Country
TTITLE0=Montreal
TTITLE1=When I'm in Love
TTITLE2=I Will Wait for You
TTITLE3=Before the Bells
TTITLE4=John Peel
TTITLE5=December Sparklers
TTITLE6=Last Dream of Will Keene
TTITLE7=Wander
TTITLE8=Daddy Rhythm Guitar
TTITLE9=I'm Takin' It Home
TTITLE10=Little Glass of Wine
TTITLE11=Conte Hondo
EXTD=YEAR: 2006
EXTT0=
EXTT1=
EXTT2=
EXTT3=
EXTT4=
EXTT5=
EXTT6=
EXTT7=
EXTT8=
EXTT9=
EXTT10=
EXTT11=
PLAYORDER=
